<svg width="24" height="24" viewBox="0 0 24 24" fill="none" xmlns="http://www.w3.org/2000/svg">
<path d="M17 3C17 2.73478 16.8946 2.48043 16.7071 2.29289C16.5196 2.10536 16.2652 2 16 2C15.7348 2 15.4804 2.10536 15.2929 2.29289C15.1054 2.48043 15 2.73478 15 3H9C9 2.73478 8.89464 2.48043 8.70711 2.29289C8.51957 2.10536 8.26522 2 8 2C7.73478 2 7.48043 2.10536 7.29289 2.29289C7.10536 2.48043 7 2.73478 7 3C5.67441 3.00159 4.40356 3.52888 3.46622 4.46622C2.52888 5.40356 2.00159 6.67441 2 8V17C2.00159 18.3256 2.52888 19.5964 3.46622 20.5338C4.40356 21.4711 5.67441 21.9984 7 22H17C18.3256 21.9984 19.5964 21.4711 20.5338 20.5338C21.4711 19.5964 21.9984 18.3256 22 17V8C21.9984 6.67441 21.4711 5.40356 20.5338 4.46622C19.5964 3.52888 18.3256 3.00159 17 3ZM7 5V6C7 6.26522 7.10536 6.51957 7.29289 6.70711C7.48043 6.89464 7.73478 7 8 7C8.26522 7 8.51957 6.89464 8.70711 6.70711C8.89464 6.51957 9 6.26522 9 6V5H15V6C15 6.26522 15.1054 6.51957 15.2929 6.70711C15.4804 6.89464 15.7348 7 16 7C16.2652 7 16.5196 6.89464 16.7071 6.70711C16.8946 6.51957 17 6.26522 17 6V5C17.7956 5 18.5587 5.31607 19.1213 5.87868C19.6839 6.44129 20 7.20435 20 8H4C4 7.20435 4.31607 6.44129 4.87868 5.87868C5.44129 5.31607 6.20435 5 7 5ZM17 20H7C6.20435 20 5.44129 19.6839 4.87868 19.1213C4.31607 18.5587 4 17.7956 4 17V10H20V17C20 17.7956 19.6839 18.5587 19.1213 19.1213C18.5587 19.6839 17.7956 20 17 20ZM17 13C17 13.1978 16.9414 13.3911 16.8315 13.5556C16.7216 13.72 16.5654 13.8482 16.3827 13.9239C16.2 13.9996 15.9989 14.0194 15.8049 13.9808C15.6109 13.9422 15.4327 13.847 15.2929 13.7071C15.153 13.5673 15.0578 13.3891 15.0192 13.1951C14.9806 13.0011 15.0004 12.8 15.0761 12.6173C15.1518 12.4346 15.28 12.2784 15.4444 12.1685C15.6089 12.0586 15.8022 12 16 12C16.2652 12 16.5196 12.1054 16.7071 12.2929C16.8946 12.4804 17 12.7348 17 13ZM13 13C13 13.1978 12.9414 13.3911 12.8315 13.5556C12.7216 13.72 12.5654 13.8482 12.3827 13.9239C12.2 13.9996 11.9989 14.0194 11.8049 13.9808C11.6109 13.9422 11.4327 13.847 11.2929 13.7071C11.153 13.5673 11.0578 13.3891 11.0192 13.1951C10.9806 13.0011 11.0004 12.8 11.0761 12.6173C11.1518 12.4346 11.28 12.2784 11.4444 12.1685C11.6089 12.0586 11.8022 12 12 12C12.2652 12 12.5196 12.1054 12.7071 12.2929C12.8946 12.4804 13 12.7348 13 13ZM9 13C9 13.1978 8.94135 13.3911 8.83147 13.5556C8.72159 13.72 8.56541 13.8482 8.38268 13.9239C8.19996 13.9996 7.99889 14.0194 7.80491 13.9808C7.61093 13.9422 7.43275 13.847 7.29289 13.7071C7.15304 13.5673 7.0578 13.3891 7.01921 13.1951C6.98063 13.0011 7.00043 12.8 7.07612 12.6173C7.15181 12.4346 7.27998 12.2784 7.44443 12.1685C7.60888 12.0586 7.80222 12 8 12C8.26522 12 8.51957 12.1054 8.70711 12.2929C8.89464 12.4804 9 12.7348 9 13ZM17 17C17 17.1978 16.9414 17.3911 16.8315 17.5556C16.7216 17.72 16.5654 17.8482 16.3827 17.9239C16.2 17.9996 15.9989 18.0194 15.8049 17.9808C15.6109 17.9422 15.4327 17.847 15.2929 17.7071C15.153 17.5673 15.0578 17.3891 15.0192 17.1951C14.9806 17.0011 15.0004 16.8 15.0761 16.6173C15.1518 16.4346 15.28 16.2784 15.4444 16.1685C15.6089 16.0586 15.8022 16 16 16C16.2652 16 16.5196 16.1054 16.7071 16.2929C16.8946 16.4804 17 16.7348 17 17ZM13 17C13 17.1978 12.9414 17.3911 12.8315 17.5556C12.7216 17.72 12.5654 17.8482 12.3827 17.9239C12.2 17.9996 11.9989 18.0194 11.8049 17.9808C11.6109 17.9422 11.4327 17.847 11.2929 17.7071C11.153 17.5673 11.0578 17.3891 11.0192 17.1951C10.9806 17.0011 11.0004 16.8 11.0761 16.6173C11.1518 16.4346 11.28 16.2784 11.4444 16.1685C11.6089 16.0586 11.8022 16 12 16C12.2652 16 12.5196 16.1054 12.7071 16.2929C12.8946 16.4804 13 16.7348 13 17ZM9 17C9 17.1978 8.94135 17.3911 8.83147 17.5556C8.72159 17.72 8.56541 17.8482 8.38268 17.9239C8.19996 17.9996 7.99889 18.0194 7.80491 17.9808C7.61093 17.9422 7.43275 17.847 7.29289 17.7071C7.15304 17.5673 7.0578 17.3891 7.01921 17.1951C6.98063 17.0011 7.00043 16.8 7.07612 16.6173C7.15181 16.4346 7.27998 16.2784 7.44443 16.1685C7.60888 16.0586 7.80222 16 8 16C8.26522 16 8.51957 16.1054 8.70711 16.2929C8.89464 16.4804 9 16.7348 9 17Z" fill="#E7E7E7"/>
</svg>
