<svg width="20" height="16" viewBox="0 0 20 16" fill="none" xmlns="http://www.w3.org/2000/svg">
<path d="M15 0H5C3.67441 0.00158786 2.40356 0.528882 1.46622 1.46622C0.528882 2.40356 0.00158786 3.67441 0 5V11C0.00158786 12.3256 0.528882 13.5964 1.46622 14.5338C2.40356 15.4711 3.67441 15.9984 5 16H15C16.3256 15.9984 17.5964 15.4711 18.5338 14.5338C19.4711 13.5964 19.9984 12.3256 20 11V5C19.9984 3.67441 19.4711 2.40356 18.5338 1.46622C17.5964 0.528882 16.3256 0.00158786 15 0ZM5 2H15C15.5588 2.00173 16.106 2.15981 16.5796 2.45636C17.0532 2.7529 17.4344 3.17607 17.68 3.678L11.664 7.688C11.1716 8.0175 10.5925 8.1934 10 8.1934C9.40753 8.1934 8.82839 8.0175 8.336 7.688L2.32 3.678C2.56562 3.17607 2.9468 2.7529 3.42042 2.45636C3.89404 2.15981 4.4412 2.00173 5 2ZM15 14H5C4.20435 14 3.44129 13.6839 2.87868 13.1213C2.31607 12.5587 2 11.7956 2 11V5.868L7.226 9.353C8.0468 9.90195 9.01205 10.195 9.9995 10.195C10.987 10.195 11.9522 9.90195 12.773 9.353L18 5.868V11C18 11.7956 17.6839 12.5587 17.1213 13.1213C16.5587 13.6839 15.7956 14 15 14Z" fill="#E7E7E7"/>
</svg>
