<svg width="24" height="24" viewBox="0 0 24 24" fill="none" xmlns="http://www.w3.org/2000/svg">
<path d="M12.0001 6.0001C11.209 6.0001 10.4356 6.23469 9.77782 6.67422C9.12002 7.11374 8.60733 7.73846 8.30458 8.46936C8.00183 9.20027 7.92261 10.0045 8.07695 10.7805C8.2313 11.5564 8.61226 12.2691 9.17167 12.8285C9.73108 13.3879 10.4438 13.7689 11.2197 13.9232C11.9957 14.0776 12.7999 13.9984 13.5308 13.6956C14.2617 13.3929 14.8864 12.8802 15.326 12.2224C15.7655 11.5646 16.0001 10.7912 16.0001 10.0001C16.0001 8.93923 15.5787 7.92181 14.8285 7.17167C14.0784 6.42152 13.061 6.0001 12.0001 6.0001ZM12.0001 12.0001C11.6045 12.0001 11.2179 11.8828 10.889 11.663C10.5601 11.4433 10.3037 11.1309 10.1523 10.7655C10.001 10.4 9.96136 9.99788 10.0385 9.60992C10.1157 9.22195 10.3062 8.86559 10.5859 8.58588C10.8656 8.30618 11.222 8.1157 11.6099 8.03853C11.9979 7.96136 12.4 8.00096 12.7655 8.15234C13.1309 8.30371 13.4433 8.56006 13.663 8.88896C13.8828 9.21785 14.0001 9.60453 14.0001 10.0001C14.0001 10.5305 13.7894 11.0392 13.4143 11.4143C13.0392 11.7894 12.5305 12.0001 12.0001 12.0001ZM12.0001 2.0001C10.9429 1.97589 9.89177 2.16628 8.91023 2.55975C7.92868 2.95322 7.0371 3.5416 6.28935 4.28935C5.5416 5.0371 4.95322 5.92868 4.55975 6.91023C4.16628 7.89177 3.97589 8.9429 4.0001 10.0001C4.0001 16.3261 8.8121 20.2601 10.8811 21.6571C11.2096 21.8805 11.5978 22 11.9951 22C12.3924 22 12.7806 21.8805 13.1091 21.6571C15.1811 20.2601 20.0001 16.3241 20.0001 10.0001C20.0239 8.94301 19.8332 7.89208 19.4396 6.91072C19.046 5.92937 18.4576 5.03796 17.7099 4.2903C16.9622 3.54264 16.0708 2.95424 15.0895 2.56062C14.1081 2.167 13.0572 1.97632 12.0001 2.0001ZM12.0001 20.0001C10.2001 18.7811 6.0001 15.3671 6.0001 10.0001C5.97216 9.20464 6.10825 8.41195 6.39989 7.67135C6.69153 6.93076 7.13248 6.25812 7.6953 5.6953C8.25812 5.13248 8.93076 4.69153 9.67135 4.39989C10.4119 4.10825 11.2046 3.97216 12.0001 4.0001C12.7929 3.98234 13.5811 4.12539 14.317 4.42063C15.053 4.71587 15.7216 5.15718 16.2823 5.71791C16.843 6.27864 17.2843 6.94717 17.5796 7.68315C17.8748 8.41913 18.0179 9.2073 18.0001 10.0001C18.0001 15.3641 13.8001 18.7811 12.0001 20.0001Z" fill="#E7E7E7"/>
</svg>
