<svg width="20" height="20" viewBox="0 0 20 20" fill="none" xmlns="http://www.w3.org/2000/svg">
<path d="M20 7C20.0002 6.89195 19.9829 6.78458 19.949 6.682L18.86 3.419C18.5291 2.42291 17.8927 1.55642 17.0413 0.942645C16.1898 0.328874 15.1666 -0.000961674 14.117 2.10612e-06H5.883C4.83339 -0.000961674 3.81016 0.328874 2.95871 0.942645C2.10726 1.55642 1.47088 2.42291 1.14 3.419L0.0510001 6.684C0.0172777 6.78595 6.05076e-05 6.89262 0 7C0.00530061 7.96437 0.360662 8.894 1 9.616V16C1 17.0609 1.42143 18.0783 2.17157 18.8284C2.92172 19.5786 3.93913 20 5 20H9.027V16C9.027 15.7348 9.13236 15.4804 9.31989 15.2929C9.50743 15.1054 9.76178 15 10.027 15C10.2922 15 10.5466 15.1054 10.7341 15.2929C10.9216 15.4804 11.027 15.7348 11.027 16V20H15C16.0609 20 17.0783 19.5786 17.8284 18.8284C18.5786 18.0783 19 17.0609 19 16V9.618C19.6398 8.89548 19.9952 7.96506 20 7ZM3.037 4.052C3.23599 3.45455 3.61795 2.93486 4.12874 2.56657C4.63954 2.19828 5.25328 2.00006 5.883 2H14.117C14.7467 2.00006 15.3605 2.19828 15.8713 2.56657C16.3821 2.93486 16.764 3.45455 16.963 4.052L18 7.146C17.9693 7.65124 17.7456 8.12537 17.3752 8.47041C17.0049 8.81545 16.5162 9.00504 16.01 9C15.5737 9.00212 15.1462 8.87746 14.7794 8.64117C14.4127 8.40488 14.1224 8.06714 13.944 7.669C13.8754 7.47341 13.7477 7.30396 13.5786 7.18411C13.4095 7.06426 13.2073 6.99993 13 7C12.7921 7.00092 12.5896 7.06661 12.4208 7.18795C12.252 7.30929 12.1252 7.48023 12.058 7.677C11.8788 8.07146 11.5898 8.40598 11.2256 8.64058C10.8613 8.87518 10.4373 8.99993 10.004 8.99993C9.57075 8.99993 9.14666 8.87518 8.78242 8.64058C8.41818 8.40598 8.12919 8.07146 7.95 7.677C7.8824 7.47894 7.75437 7.30708 7.58394 7.18563C7.41351 7.06417 7.20928 6.99925 7 7C6.79272 6.99993 6.59054 7.06426 6.42142 7.18411C6.25231 7.30396 6.12461 7.47341 6.056 7.669C5.87757 8.06714 5.58734 8.40488 5.22057 8.64117C4.8538 8.87746 4.42629 9.00212 3.99 9C3.48471 9.00375 2.99722 8.81359 2.62794 8.46868C2.25866 8.12376 2.0357 7.65037 2.005 7.146L3.037 4.052ZM15 18H13.027V16C13.027 15.2044 12.7109 14.4413 12.1483 13.8787C11.5857 13.3161 10.8226 13 10.027 13C9.23135 13 8.46829 13.3161 7.90568 13.8787C7.34307 14.4413 7.027 15.2044 7.027 16V18H5C4.46957 18 3.96086 17.7893 3.58579 17.4142C3.21071 17.0391 3 16.5304 3 16V10.86C3.32274 10.9484 3.6554 10.9955 3.99 11C5.11254 10.9928 6.18968 10.5559 7 9.779C7.80399 10.5619 8.88183 10.9999 10.004 10.9999C11.1262 10.9999 12.204 10.5619 13.008 9.779C13.8165 10.5537 14.8903 10.9905 16.01 11C16.3446 10.996 16.6774 10.949 17 10.86V16C17 16.5304 16.7893 17.0391 16.4142 17.4142C16.0391 17.7893 15.5304 18 15 18Z" fill="#E7E7E7"/>
</svg>
