<svg width="24" height="24" viewBox="0 0 24 24" fill="none" xmlns="http://www.w3.org/2000/svg">
<path d="M20.537 10L14 3.46501C13.5371 2.99979 12.9867 2.63083 12.3805 2.37939C11.7743 2.12795 11.1243 1.99901 10.468 2.00001H6.00001C4.93914 2.00001 3.92173 2.42143 3.17158 3.17158C2.42144 3.92172 2.00001 4.93914 2.00001 6.00001V10.466C1.99866 11.1227 2.12753 11.7732 2.37916 12.3798C2.6308 12.9864 3.0002 13.5371 3.46601 14L10 20.535C10.9377 21.4727 12.2094 21.9994 13.5355 21.9994C14.8616 21.9994 16.1333 21.4727 17.071 20.535L20.537 17.069C21.4726 16.1306 21.998 14.8596 21.998 13.5345C21.998 12.2094 21.4726 10.9384 20.537 10ZM19.123 15.657L15.656 19.123C15.0846 19.6684 14.325 19.9727 13.535 19.9727C12.7451 19.9727 11.9855 19.6684 11.414 19.123L4.88001 12.588C4.60031 12.3101 4.37852 11.9794 4.22747 11.6151C4.07642 11.2509 3.99911 10.8603 4.00001 10.466V6.00001C4.00001 5.46957 4.21072 4.96086 4.5858 4.58579C4.96087 4.21072 5.46958 4.00001 6.00001 4.00001H10.467C11.2622 4.00236 12.0243 4.31821 12.588 4.87901L19.122 11.412C19.6836 11.9751 19.9991 12.738 19.9993 13.5333C19.9995 14.3286 19.6844 15.0916 19.123 15.655V15.657ZM9.00001 7.50001C9.00001 7.79668 8.91204 8.08669 8.74722 8.33336C8.58239 8.58003 8.34812 8.77229 8.07404 8.88583C7.79995 8.99936 7.49835 9.02906 7.20738 8.97118C6.9164 8.91331 6.64913 8.77044 6.43935 8.56067C6.22957 8.35089 6.08671 8.08361 6.02883 7.79264C5.97095 7.50167 6.00066 7.20007 6.11419 6.92598C6.22772 6.65189 6.41998 6.41762 6.66666 6.2528C6.91333 6.08798 7.20334 6.00001 7.50001 6.00001C7.89784 6.00001 8.27937 6.15804 8.56067 6.43935C8.84198 6.72065 9.00001 7.10218 9.00001 7.50001Z" fill="#E7E7E7"/>
</svg>
